<svg width="0" height="0" class="hidden">
   <symbol fill="none" xmlns="http://www.w3.org/2000/svg" viewBox="0 0 24 24" id="vk">
    <path d="M23.8727 17.5283C23.8437 17.4656 23.8166 17.4136 23.7914 17.3719C23.375 16.6208 22.5793 15.6988 21.4047 14.6058L21.3799 14.5808L21.3675 14.5685L21.3549 14.5559H21.3423C20.8092 14.047 20.4716 13.7048 20.3303 13.5296C20.0716 13.1958 20.0137 12.858 20.155 12.5157C20.2549 12.257 20.6301 11.7109 21.2797 10.8764C21.6213 10.4341 21.892 10.0797 22.0918 9.81263C23.5331 7.89355 24.1579 6.66723 23.9662 6.13319L23.8918 6.0084C23.8418 5.93326 23.7127 5.86453 23.5046 5.80185C23.2961 5.73929 23.0296 5.72895 22.7047 5.77064L19.106 5.79553C19.0477 5.77484 18.9644 5.77677 18.856 5.80185C18.7477 5.82692 18.6935 5.8395 18.6935 5.8395L18.6308 5.87084L18.5811 5.9085C18.5395 5.93339 18.4936 5.97719 18.4436 6.03978C18.3938 6.10216 18.3522 6.17536 18.319 6.25878C17.9272 7.26834 17.4817 8.20697 16.9817 9.07463C16.6735 9.59201 16.3904 10.0404 16.1319 10.4201C15.8737 10.7996 15.6571 11.0792 15.4823 11.2584C15.3072 11.4378 15.1492 11.5816 15.0073 11.6902C14.8657 11.7988 14.7575 11.8447 14.6826 11.8279C14.6076 11.8111 14.5369 11.7944 14.47 11.7778C14.3534 11.7027 14.2597 11.6005 14.189 11.4712C14.118 11.3419 14.0702 11.1791 14.0452 10.983C14.0203 10.7868 14.0056 10.6181 14.0014 10.4762C13.9975 10.3344 13.9993 10.134 14.0078 9.87536C14.0164 9.61661 14.0203 9.44153 14.0203 9.34974C14.0203 9.03264 14.0265 8.68849 14.0389 8.31721C14.0515 7.94593 14.0617 7.65176 14.0702 7.43504C14.0787 7.2181 14.0827 6.98858 14.0827 6.74662C14.0827 6.50465 14.068 6.31489 14.0389 6.17716C14.0102 6.03961 13.9661 5.90609 13.908 5.77664C13.8496 5.64733 13.7641 5.5473 13.6519 5.47629C13.5394 5.40536 13.3996 5.34908 13.2333 5.30726C12.7917 5.20719 12.2294 5.15305 11.5462 5.14463C9.99681 5.12798 9.00124 5.22818 8.55972 5.44512C8.38478 5.53678 8.22648 5.66201 8.08494 5.82043C7.93495 6.00406 7.91402 6.10426 8.0223 6.12074C8.52221 6.19575 8.87611 6.37516 9.0844 6.65882L9.15946 6.80912C9.21784 6.91757 9.27614 7.10957 9.33448 7.38485C9.39273 7.66013 9.43033 7.96465 9.44687 8.29823C9.48845 8.9074 9.48845 9.42886 9.44687 9.86265C9.40516 10.2966 9.36577 10.6344 9.32818 10.8764C9.29058 11.1184 9.23439 11.3145 9.15946 11.4646C9.0844 11.6148 9.03446 11.7066 9.00942 11.7399C8.98443 11.7732 8.9636 11.7942 8.94706 11.8024C8.83878 11.844 8.72616 11.8651 8.60961 11.8651C8.49289 11.8651 8.35134 11.8067 8.18477 11.6898C8.01823 11.5729 7.8454 11.4124 7.66626 11.208C7.48712 11.0035 7.28509 10.7177 7.06009 10.3507C6.83526 9.98359 6.60198 9.54976 6.36039 9.04917L6.1605 8.68613C6.03555 8.45257 5.86486 8.11251 5.64825 7.66622C5.43152 7.21977 5.23995 6.78791 5.07342 6.37073C5.00685 6.19553 4.90684 6.06214 4.77357 5.97035L4.71103 5.93269C4.66945 5.89938 4.60271 5.864 4.51115 5.82631C4.41945 5.78865 4.32378 5.76165 4.22373 5.74504L0.799884 5.76994C0.450012 5.76994 0.21262 5.84932 0.0876214 6.00787L0.0375958 6.08287C0.0126049 6.12465 0 6.19136 0 6.2832C0 6.37499 0.0249909 6.48764 0.0750165 6.62103C0.574835 7.79755 1.11838 8.93221 1.70564 10.0252C2.29291 11.1182 2.80323 11.9986 3.2363 12.6657C3.66946 13.3332 4.11098 13.9633 4.56086 14.5555C5.01075 15.1479 5.30854 15.5275 5.45424 15.6943C5.60011 15.8614 5.71469 15.9864 5.79798 16.0698L6.11043 16.3701C6.31036 16.5704 6.60395 16.8102 6.99133 17.0897C7.3788 17.3693 7.80776 17.6446 8.27843 17.916C8.74918 18.1869 9.29684 18.408 9.9217 18.579C10.5465 18.7502 11.1546 18.8189 11.7461 18.7857H13.1831C13.4746 18.7605 13.6954 18.6687 13.8455 18.5103L13.8952 18.4476C13.9286 18.3978 13.9599 18.3204 13.9888 18.2163C14.018 18.112 14.0326 17.9971 14.0326 17.8722C14.024 17.5135 14.0513 17.1902 14.1136 16.9024C14.1759 16.6146 14.2469 16.3977 14.3263 16.2516C14.4056 16.1056 14.4952 15.9825 14.5948 15.8826C14.6947 15.7825 14.7659 15.7219 14.8076 15.701C14.8491 15.68 14.8822 15.6658 14.9072 15.6572C15.1072 15.5905 15.3425 15.6551 15.6135 15.8514C15.8842 16.0475 16.1382 16.2896 16.3758 16.5773C16.6132 16.8653 16.8985 17.1884 17.2317 17.5471C17.565 17.9059 17.8565 18.1727 18.1063 18.3481L18.3562 18.4983C18.523 18.5985 18.7396 18.6903 19.0062 18.7737C19.2724 18.8571 19.5056 18.878 19.7058 18.8363L22.9046 18.7863C23.221 18.7863 23.4672 18.7338 23.6418 18.6297C23.8168 18.5254 23.9207 18.4105 23.9543 18.2856C23.9877 18.1605 23.9895 18.0185 23.9606 17.8599C23.931 17.7016 23.9018 17.5909 23.8727 17.5283Z" fill="currentColor"></path>
  </symbol>
  <symbol fill="none" xmlns="http://www.w3.org/2000/svg" viewBox="0 0 24 24" id="yt">
    <path d="M12.4245 18.5923L8.4905 18.5204C7.21676 18.4954 5.93985 18.5454 4.69108 18.286C2.79142 17.8986 2.65684 15.9988 2.51602 14.4052C2.32198 12.1649 2.3971 9.88389 2.76328 7.66224C2.96999 6.41567 3.78352 5.67182 5.0416 5.59088C9.28856 5.29712 13.5638 5.33194 17.8013 5.46898C18.2488 5.48155 18.6995 5.55022 19.1407 5.62838C21.3191 6.0096 21.3722 8.16248 21.5134 9.9748C21.6542 11.8058 21.5948 13.6462 21.3256 15.4648C21.1097 16.9705 20.6965 18.2332 18.953 18.3551C16.7684 18.5145 14.6339 18.6428 12.4432 18.602C12.4433 18.5923 12.4307 18.5923 12.4245 18.5923ZM10.1117 14.7802C11.7579 13.8365 13.3728 12.9085 15.0096 11.9712C13.3603 11.0275 11.7485 10.0995 10.1117 9.1621V14.7802Z" fill="currentColor"></path>
  </symbol>
  <symbol fill="none" xmlns="http://www.w3.org/2000/svg" viewBox="0 0 24 24" id="tg">
    <path d="M20.9727 3.50985L3.48936 10.1519C2.29106 10.6135 2.31222 11.2671 3.28385 11.5708L7.75972 12.9466L18.1424 6.50555C18.6245 6.1899 19.0718 6.36857 18.7061 6.68571L10.3044 14.1645L9.98254 18.7102C10.451 18.7102 10.655 18.5092 10.8967 18.271L13.0833 16.1954L17.6166 19.4874C18.4432 19.949 19.034 19.7108 19.2546 18.7311L22.2315 4.91241L22.23 4.9139C22.4929 3.7049 21.7842 3.221 20.9727 3.50985Z" fill="currentColor"></path>
  </symbol>
</svg>